<?xml version="1.0" encoding="utf-8"?>
<!-- Generator: Adobe Illustrator 18.0.0, SVG Export Plug-In . SVG Version: 6.00 Build 0)  -->
<!DOCTYPE svg PUBLIC "-//W3C//DTD SVG 1.1//EN" "http://www.w3.org/Graphics/SVG/1.1/DTD/svg11.dtd">
<svg version="1.1" id="Ebene_1" xmlns="http://www.w3.org/2000/svg" xmlns:xlink="http://www.w3.org/1999/xlink" x="0px" y="0px"
	 width="151.3px" height="151.3px" viewBox="0 0 151.3 151.3" enable-background="new 0 0 151.3 151.3" xml:space="preserve">
<g>
	<g>
		<path fill="#FFFFFF" d="M147,88.2c-6.9,39.4-44.5,65.7-83.9,58.7C23.7,140-2.6,102.5,4.4,63.1C11.3,23.7,48.9-2.6,88.2,4.4
			C127.6,11.3,153.9,48.9,147,88.2"/>
	</g>
	<polygon fill="#002A42" points="46.4,109.6 51.2,110.5 49.8,104.6 	"/>
	<polygon fill="#002A42" points="58.1,96.8 60.9,97.3 60.1,93.6 	"/>
	<polygon fill="#002A42" points="44,123.4 48.8,124.3 47.3,118.5 	"/>
	<g>
		<path fill="#002A42" d="M96.6,108.2l-8-1.4l1.9-10.6l8,1.4l-0.4,2.1l-5.7-1l-0.4,2.1l5,0.9l-0.4,2.1l-5-0.9l-0.4,2.2l5.7,1
			L96.6,108.2z M84.5,83.5c-3.2,0.9-6.7,1.1-10.3,0.4c-3.6-0.6-6.8-1.9-9.6-3.9c-2.7-2-4.9-4.4-6.6-7.3c-1.7-2.9-2.8-6.2-3.3-9.8
			c-0.5-3.6-0.5-7.4,0.2-11.4c0.7-4,1.9-7.6,3.7-10.8c1.8-3.2,4-5.9,6.5-8.1c2.6-2.2,5.5-3.7,8.7-4.7c3.2-0.9,6.7-1.1,10.3-0.4
			c3.6,0.6,6.8,1.9,9.6,3.9c2.7,2,4.9,4.4,6.6,7.3c1.7,2.9,2.8,6.2,3.3,9.8c0.5,3.6,0.5,7.4-0.2,11.4c-0.7,4-1.9,7.6-3.7,10.8
			c-1.8,3.3-4,6-6.5,8.1C90.7,81,87.8,82.6,84.5,83.5 M84,105.9l-1.7-3.8l-1.8-0.3l-0.6,3.4l-2.3-0.4l1.9-10.6l4.8,0.9
			c1.3,0.2,2.2,0.7,2.8,1.4c0.6,0.7,0.8,1.7,0.6,2.7l0,0c-0.2,0.9-0.5,1.5-1,2c-0.5,0.5-1.1,0.8-1.8,0.9l1.9,4.2L84,105.9z
			 M78.7,133.5l-1.2-0.2l1.9-10.6l1.2,0.2L78.7,133.5z M74.2,132.7l-1-0.2l-5.3-9.9l-1.5,8.7l-1.2-0.2l1.9-10.6l1.1,0.2l5.2,9.6
			l1.5-8.5l1.2,0.2L74.2,132.7z M74.1,115c0-0.2-0.2-0.4-0.3-0.6c-0.2-0.2-0.4-0.4-0.8-0.6c-0.3-0.2-0.8-0.4-1.3-0.6
			c-0.6-0.2-1.1-0.5-1.5-0.7c-0.4-0.3-0.8-0.5-1-0.8c-0.3-0.3-0.4-0.6-0.5-1c-0.1-0.4-0.1-0.7,0-1.2c0.1-0.4,0.2-0.8,0.5-1.1
			c0.2-0.3,0.5-0.6,0.9-0.8c0.4-0.2,0.8-0.3,1.2-0.4c0.4-0.1,0.9-0.1,1.4,0c0.8,0.1,1.4,0.4,2,0.7c0.5,0.3,1,0.7,1.5,1.3l-0.9,0.8
			c-0.4-0.5-0.9-0.9-1.3-1.1c-0.5-0.3-1-0.4-1.5-0.5c-0.3-0.1-0.7-0.1-1,0s-0.6,0.1-0.8,0.2c-0.2,0.1-0.4,0.3-0.5,0.5
			c-0.1,0.2-0.2,0.4-0.3,0.7c0,0.3,0,0.5,0,0.7s0.2,0.4,0.3,0.6c0.2,0.2,0.4,0.4,0.8,0.6c0.3,0.2,0.8,0.4,1.4,0.6
			c1.1,0.5,1.9,1,2.4,1.5c0.5,0.6,0.6,1.3,0.5,2.1c-0.1,0.5-0.2,0.9-0.5,1.2c-0.2,0.3-0.5,0.6-0.9,0.8c-0.4,0.2-0.8,0.3-1.2,0.4
			c-0.5,0.1-1,0-1.5,0c-0.8-0.1-1.6-0.4-2.2-0.8c-0.7-0.4-1.2-0.9-1.8-1.6l0.9-0.7c0.5,0.6,1,1.1,1.5,1.4c0.5,0.3,1.1,0.6,1.9,0.7
			c0.7,0.1,1.3,0.1,1.8-0.2c0.5-0.3,0.8-0.7,0.9-1.2C74.2,115.4,74.2,115.2,74.1,115 M68.3,103.2l-2.3-0.4l1.9-10.6l2.3,0.4
			l-0.7,4.2l4.3,0.8l0.7-4.2l2.3,0.4l-1.9,10.6l-2.3-0.4l0.7-4.2L69,98.9L68.3,103.2z M64.5,116.8l-1-0.2l-5.3-9.9l-1.5,8.7
			l-1.2-0.2l1.9-10.6l1.1,0.2l5.2,9.6l1.5-8.5l1.2,0.2L64.5,116.8z M62.1,130.6l-1-0.2l-5.3-9.9l-1.5,8.7l-1.2-0.2l1.9-10.6l1.1,0.2
			l5.2,9.6l1.5-8.5l1.2,0.2L62.1,130.6z M55.5,100.9l-2.4-0.4l6.4-9.8l2.1,0.4l2.7,11.4l-2.4-0.4l-0.5-2.5l-4.5-0.8L55.5,100.9z
			 M52.2,114.6l-0.7-3l-5.8-1l-1.7,2.6l-1.2-0.2l6.7-9.8l1.1,0.2l2.9,11.5L52.2,114.6z M49.8,128.4l-0.7-3l-5.8-1l-1.7,2.6l-1.2-0.2
			L47,117l1.1,0.2l2.9,11.5L49.8,128.4z M46.8,96.2c0.2,0.4,0.5,0.7,0.8,0.9c0.3,0.2,0.6,0.4,1,0.5c0.4,0.1,0.8,0,1.1-0.2
			c0.3-0.2,0.5-0.7,0.6-1.3l1.2-6.8l2.4,0.4l-1.2,6.9c-0.1,0.6-0.3,1.2-0.6,1.6c-0.3,0.4-0.6,0.8-1,1.1c-0.4,0.3-0.8,0.4-1.3,0.5
			c-0.5,0.1-1,0.1-1.6,0c-0.8-0.1-1.5-0.4-2-0.8c-0.5-0.4-0.9-0.9-1.2-1.4L46.8,96.2z M88.2,4.4C67,0.6,46.3,6.5,30.6,19
			c0,0,0,0,0,0h0l24.2,4.3L53,33.8l-23.3-4.1L27.4,39c1.1-0.1,2.3-0.1,3.4-0.1c1.1,0,2.4,0.1,3.9,0.4c2.7,0.5,5.2,1.3,7.4,2.3
			c2.2,1.1,4,2.5,5.5,4.2c1.5,1.7,2.5,3.8,3.1,6.1c0.6,2.4,0.6,5.1,0.1,8.3c-0.5,2.9-1.5,5.4-2.9,7.6c-1.4,2.2-3.2,3.9-5.3,5.2
			c-2.1,1.3-4.5,2.2-7.2,2.6c-2.7,0.4-5.7,0.4-8.8-0.2c-4.4-0.8-8.1-2.2-11.2-4.2c-3-2-5.6-4.5-7.8-7.5l8.8-7.4
			c1.7,2.2,3.6,4.1,5.5,5.5c1.9,1.4,4.1,2.3,6.5,2.8c2.8,0.5,5.1,0.2,7-0.8c1.9-1,3-2.8,3.5-5.3c0.4-2.4-0.1-4.4-1.6-6
			c-1.5-1.6-3.7-2.7-6.7-3.2c-1.7-0.3-3.4-0.4-5-0.3c-1.6,0.1-3.1,0.3-4.5,0.7L15,44l2.8-11.7C11.1,41,6.4,51.5,4.4,63.1
			C-2.6,102.5,23.7,140,63,147c0,0,0,0,0,0c0,0,0,0,0,0c39.4,6.9,76.9-19.4,83.8-58.7C153.9,48.9,127.6,11.3,88.2,4.4"/>
		<path fill="#002A42" d="M90.1,44.8c-0.8-1.7-1.8-3.2-3.1-4.3c-1.3-1.1-2.9-1.9-4.7-2.2c-1.8-0.3-3.5-0.2-5.1,0.4
			c-1.6,0.6-3.1,1.6-4.4,2.9c-1.3,1.4-2.4,3-3.3,5.1c-0.9,2-1.6,4.3-2,6.8c-0.4,2.5-0.6,4.9-0.4,7.1c0.2,2.2,0.7,4.2,1.4,6
			c0.8,1.7,1.8,3.2,3.1,4.3c1.3,1.1,2.9,1.9,4.7,2.2c1.8,0.3,3.5,0.2,5.1-0.4c1.6-0.6,3.1-1.6,4.4-3c1.3-1.4,2.4-3.1,3.3-5.1
			c0.9-2,1.6-4.3,2-6.8c0.4-2.5,0.6-4.9,0.4-7.1C91.3,48.5,90.8,46.6,90.1,44.8"/>
		<path fill="#002A42" d="M83.7,97.2l-2.3-0.4l-0.5,3l2.4,0.4c0.6,0.1,1,0,1.4-0.2c0.4-0.2,0.6-0.6,0.7-1l0,0c0.1-0.5,0-0.9-0.3-1.2
			C84.7,97.5,84.3,97.3,83.7,97.2"/>
	</g>
</g>
</svg>
