<?xml version="1.0" encoding="utf-8"?>
<!-- Generator: Adobe Illustrator 18.1.1, SVG Export Plug-In . SVG Version: 6.00 Build 0)  -->
<svg version="1.1" id="Ebene_1" xmlns="http://www.w3.org/2000/svg" xmlns:xlink="http://www.w3.org/1999/xlink" x="0px" y="0px"
	 width="2500px" height="1580.6px" viewBox="-71.8 1081.6 2500 1580.6" enable-background="new -71.8 1081.6 2500 1580.6"
	 xml:space="preserve">
<polygon fill="#EEEEEE" points="-71.8,1540.2 2427.1,1696.9 2427.1,1082 -71.8,1082.7 "/>
<polygon fill="none" points="2429,1682.9 2429,1434 2324.7,1673.4 "/>
<polygon fill="none" points="2427.7,1082.7 2429,1083.2 2429,1081.6 -72.7,1081.6 -72.7,1454.7 2176.2,1659.8 "/>
<polygon fill="#E8E5D6" points="2176.2,1659.8 -72.7,1454.7 -72.7,1596.8 2116.6,1796.5 "/>
<polygon fill="#E8E5D6" points="2324.7,1673.4 2273.1,1791.7 2265.1,1810.1 2429,1825 2429,1730.5 2429,1682.9 "/>
<polygon fill="#B5B082" points="2429,1434 2429,1083.2 2427.7,1082.7 2086.9,1864.8 56.1,2662.2 443.3,2662.2 2006.9,2048.3 
	1739.4,2662.2 1893.7,2662.2 2193.2,1975.1 2429,1882.5 2429,1825 2265.1,1810.1 "/>
</svg>
