<?xml version="1.0" encoding="utf-8"?>
<!-- Generator: Adobe Illustrator 15.0.2, SVG Export Plug-In  -->
<!DOCTYPE svg PUBLIC "-//W3C//DTD SVG 1.1//EN" "http://www.w3.org/Graphics/SVG/1.1/DTD/svg11.dtd" [
	<!ENTITY ns_flows "http://ns.adobe.com/Flows/1.0/">
]>
<svg version="1.1"
	 xmlns="http://www.w3.org/2000/svg" xmlns:xlink="http://www.w3.org/1999/xlink" xmlns:a="http://ns.adobe.com/AdobeSVGViewerExtensions/3.0/"
	 x="0px" y="0px" width="229px" height="30px" viewBox="-1.5 0 229 30" overflow="visible" enable-background="new -1.5 0 229 30"
	 xml:space="preserve">
<defs>
</defs>
<path fill="#002E54" d="M61.395,29.377l-1.913-4.722h-8.846l-1.914,4.722H44.03l8.964-21.204h4.244l8.965,21.204H61.395z
	 M55.057,13.734l-2.778,6.832h5.559L55.057,13.734z"/>
<path fill="#002E54" d="M67.439,29.377V7.422h4.543v21.955H67.439z"/>
<path fill="#002E54" d="M81.816,11.062c-1.044,0-1.642,0.54-1.642,1.743v0.631h3.674v3.731h-3.614v12.21h-4.543v-12.21h-1.882v-3.76
	h1.882v-1.022c0-3.551,1.763-5.174,4.96-5.174c1.433,0,2.39,0.183,3.227,0.452v3.79C83.223,11.21,82.596,11.062,81.816,11.062z"/>
<path fill="#002E54" d="M95.36,17.737c-3.017,0-4.87,1.835-4.87,5.685v5.955h-4.544V13.259h4.544v3.243
	c0.928-2.223,2.421-3.668,5.109-3.546v4.781H95.36z"/>
<path fill="#002E54" d="M111.86,22.912h-11.148c0.449,2.075,1.884,3.157,3.917,3.157c1.524,0,2.629-0.482,3.883-1.658l2.601,2.319
	c-1.493,1.862-3.647,3.006-6.545,3.006c-4.81,0-8.369-3.396-8.369-8.329v-0.061c0-4.603,3.261-8.391,7.921-8.391
	c5.351,0,7.8,4.18,7.8,8.753v0.058C111.919,22.221,111.891,22.487,111.86,22.912z M104.119,16.625c-1.883,0-3.107,1.353-3.466,3.428
	h6.843C107.227,18.006,106.033,16.625,104.119,16.625z"/>
<path fill="#002E54" d="M125.693,29.377v-2.318c-1.102,1.509-2.63,2.619-4.983,2.619c-3.733,0-7.287-2.947-7.287-8.331v-0.059
	c0-5.384,3.494-8.332,7.287-8.332c2.417,0,3.91,1.115,4.983,2.408V7.422h4.546v21.955H125.693z M125.755,21.288
	c0-2.679-1.762-4.452-3.885-4.452c-2.119,0-3.903,1.745-3.903,4.452v0.059c0,2.674,1.784,4.45,3.903,4.45
	c2.123,0,3.885-1.776,3.885-4.45V21.288z"/>
<path fill="#002E54" d="M157.874,29.377V15.634l-5.89,8.99h-0.118l-5.828-8.902v13.655h-4.511V8.323h4.961l5.496,8.903l5.499-8.903
	h4.962v21.054H157.874z"/>
<path fill="#002E54" d="M175.635,29.377V27.09c-1.043,1.354-2.389,2.588-4.693,2.588c-3.435,0-5.436-2.284-5.436-5.983V13.259h4.545
	v8.994c0,2.158,1.014,3.274,2.745,3.274c1.736,0,2.839-1.116,2.839-3.274v-8.994h4.55v16.118H175.635z"/>
<rect x="167.457" y="7.422" fill="#002E54" width="4.367" height="4.062"/>
<rect x="173.853" y="7.422" fill="#002E54" width="4.366" height="4.062"/>
<path fill="#002E54" d="M183.56,29.377V7.422h4.544v21.955H183.56z"/>
<path fill="#002E54" d="M191.616,29.377V7.422h4.543v21.955H191.616z"/>
<path fill="#002E54" d="M214.052,22.912h-11.145c0.444,2.075,1.882,3.157,3.914,3.157c1.521,0,2.628-0.482,3.883-1.658l2.601,2.319
	c-1.496,1.862-3.645,3.006-6.547,3.006c-4.808,0-8.364-3.396-8.364-8.329v-0.061c0-4.603,3.257-8.391,7.919-8.391
	c5.351,0,7.801,4.18,7.801,8.753v0.058C214.113,22.221,214.08,22.487,214.052,22.912z M206.312,16.625
	c-1.882,0-3.107,1.353-3.468,3.428h6.848C209.422,18.006,208.225,16.625,206.312,16.625z"/>
<path fill="#002E54" d="M225.758,17.737c-3.013,0-4.865,1.835-4.865,5.685v5.955h-4.545V13.259h4.545v3.243
	c0.925-2.223,2.418-3.668,5.107-3.546v4.781H225.758z"/>
<path fill="#002E54" d="M21.503,24.881H4.589V14.707l8.461-8.515l8.454,8.515V24.881z M13.05,0L0,12.917v16.46h26.093V12.929
	L13.05,0z"/>
<polygon fill="#002E54" points="13.089,14.707 21.505,6.192 29.952,14.687 29.952,29.377 34.543,29.377 34.543,12.896 21.505,0 
	6.696,14.703 "/>
</svg>
